<?xml version="1.0" encoding="utf-8"?>
<!-- Generator: Adobe Illustrator 22.1.0, SVG Export Plug-In . SVG Version: 6.00 Build 0)  -->
<svg version="1.1" id="Capa_1" xmlns="http://www.w3.org/2000/svg" xmlns:xlink="http://www.w3.org/1999/xlink" x="0px" y="0px"
	 viewBox="0 0 612 612" style="enable-background:new 0 0 612 612;" xml:space="preserve">
<style type="text/css">
	.st0{fill:#8E8C61;}
	.st1{fill:#333333;}
</style>
<g>
	<g>
		<g>
			<g>
				<path class="st0" d="M306,612v-14.7V612C137.3,612,0,474.7,0,306C0,137.3,137.3,0,306,0c168.7,0,306,137.3,306,306
					S474.7,612,306,612z"/>
			</g>
			<g>
				<g>
					<path class="st1" d="M329.4,148.6c0,7.1-2.5,13-7.6,17.6c-5.1,4.6-10.7,6.9-16.8,6.9c-6.1,0-11.7-2.3-16.8-6.9
						c-5.1-4.6-7.6-10.4-7.6-17.6c0-7.1,2.5-13,7.6-17.6c5.1-4.6,10.7-6.9,16.8-6.9c6.1,0,11.7,2.3,16.8,6.9
						C326.9,135.7,329.4,141.5,329.4,148.6z M321.8,478.6h-33.6V240.3h33.6V478.6z"/>
					<path class="st1" d="M321.8,498.6h-33.6c-11,0-20-9-20-20V240.3c0-11,9-20,20-20h33.6c11,0,20,9,20,20v238.3
						C341.8,489.6,332.9,498.6,321.8,498.6z M305,193.1c-11,0-21.5-4.2-30.2-12c-9.3-8.4-14.3-19.6-14.3-32.4
						c0-12.8,4.9-24,14.3-32.4c8.7-7.9,19.2-12,30.2-12c11,0,21.4,4.2,30.2,12c9.3,8.4,14.3,19.6,14.3,32.4c0,12.8-4.9,24-14.3,32.4
						C326.5,188.9,316,193.1,305,193.1z M305,144.2c-0.5,0-1.5,0-3.4,1.7c-0.6,0.6-1,0.9-1,2.7c0,1.8,0.4,2.1,1,2.7
						c1.9,1.7,2.9,1.7,3.4,1.7c0.5,0,1.5,0,3.4-1.7c0.6-0.6,1-0.9,1-2.7c0-1.8-0.4-2.1-1-2.7C306.5,144.2,305.5,144.2,305,144.2z"/>
				</g>
			</g>
		</g>
	</g>
</g>
</svg>
