<?xml version="1.0" encoding="utf-8"?>
<!-- Generator: Adobe Illustrator 22.1.0, SVG Export Plug-In . SVG Version: 6.00 Build 0)  -->
<svg version="1.1" id="Capa_1" xmlns="http://www.w3.org/2000/svg" xmlns:xlink="http://www.w3.org/1999/xlink" x="0px" y="0px"
	 viewBox="0 0 612 612" style="enable-background:new 0 0 612 612;" xml:space="preserve">
<style type="text/css">
	.st0{fill:#8E8C61;}
	.st1{fill:#333333;stroke:#333333;stroke-width:40;stroke-miterlimit:10;}
</style>
<g>
	<g>
		<g>
			<path class="st0" d="M306,612v-14.7V612C137.3,612,0,474.7,0,306C0,137.3,137.3,0,306,0c168.7,0,306,137.3,306,306
				S474.7,612,306,612z"/>
			<g>
				<path class="st1" d="M423.2,438c-3.8,0-7.5-1.4-10.4-4.3L178.4,199.2c-5.7-5.7-5.7-15.1,0-20.8c5.8-5.8,15.1-5.8,20.8,0
					l234.4,234.5c5.8,5.8,5.8,15.1,0,20.8C430.8,436.5,427,438,423.2,438z"/>
				<path class="st1" d="M188.8,438c-3.8,0-7.5-1.4-10.4-4.3c-5.7-5.7-5.7-15.1,0-20.8l234.4-234.5c5.8-5.8,15.1-5.8,20.8,0
					c5.8,5.7,5.8,15.1,0,20.8L199.2,433.6C196.3,436.5,192.5,438,188.8,438z"/>
			</g>
		</g>
	</g>
</g>
</svg>
