<?xml version="1.0" encoding="utf-8"?>
<!-- Generator: Adobe Illustrator 22.1.0, SVG Export Plug-In . SVG Version: 6.00 Build 0)  -->
<svg version="1.1" id="Capa_1" xmlns="http://www.w3.org/2000/svg" xmlns:xlink="http://www.w3.org/1999/xlink" x="0px" y="0px"
	 viewBox="0 0 612 612" style="enable-background:new 0 0 612 612;" xml:space="preserve">
<style type="text/css">
	.st0{display:none;}
	.st1{display:inline;}
	.st2{fill:#8E8C61;}
	.st3{fill:#333333;}
	.st4{fill:none;stroke:#333333;stroke-width:60;stroke-linecap:round;stroke-linejoin:round;stroke-miterlimit:10;}
	.st5{display:none;fill:none;stroke:#333333;stroke-width:60;stroke-linecap:round;stroke-linejoin:round;stroke-miterlimit:10;}
</style>
<g class="st0">
	<g class="st1">
		<g>
			<g>
				<path class="st2" d="M306,612v-14.7V612C137.3,612,0,474.7,0,306S137.3,0,306,0s306,137.3,306,306S474.7,612,306,612z"/>
			</g>
			<g class="st0">
				<g class="st1">
					<path class="st3" d="M423.2,438c-3.8,0-7.5-1.4-10.4-4.3L178.4,199.2c-5.7-5.7-5.7-15.1,0-20.8c5.8-5.8,15.1-5.8,20.8,0
						l234.4,234.5c5.8,5.8,5.8,15.1,0,20.8C430.8,436.5,427,438,423.2,438z"/>
					<path class="st3" d="M423.2,458c-9.3,0-18-3.6-24.5-10.2L164.3,213.3c-13.5-13.5-13.5-35.5,0-49.1c6.6-6.6,15.3-10.2,24.6-10.2
						c0.1,0,0.1,0,0.2,0c9.2,0,17.9,3.7,24.4,10.3l234.4,234.5c6.6,6.6,10.2,15.4,10.2,24.7c0,9.3-3.7,17.9-10.3,24.4
						C441.2,454.3,432.3,458,423.2,458z"/>
				</g>
				<g class="st1">
					<path class="st3" d="M188.8,438c-3.8,0-7.5-1.4-10.4-4.3c-5.7-5.7-5.7-15.1,0-20.8l234.4-234.5c5.8-5.8,15.1-5.8,20.8,0
						c5.8,5.7,5.8,15.1,0,20.8L199.2,433.6C196.3,436.5,192.5,438,188.8,438z"/>
					<path class="st3" d="M188.8,458c-9.3,0-18-3.6-24.5-10.2c-6.5-6.5-10.1-15.3-10.1-24.5s3.6-18,10.1-24.5l234.4-234.5
						c6.6-6.6,15.3-10.2,24.6-10.2c0.1,0,0.1,0,0.2,0c9.2,0,17.9,3.7,24.4,10.2c6.6,6.5,10.2,15.2,10.2,24.5
						c0,9.3-3.6,18.1-10.3,24.6L213.3,447.7C206.8,454.3,197.9,458,188.8,458z"/>
				</g>
			</g>
			<circle class="st4" cx="306" cy="306" r="183.5"/>
		</g>
	</g>
</g>
<line class="st5" x1="230" y1="-272.3" x2="176.3" y2="-209.6"/>
<line class="st5" x1="261" y1="-202.9" x2="178.5" y2="-203"/>
<g id="IdcoKU.tif">
	<path class="st2" d="M289.1,0c12,0,23.9,0,35.9,0c4.3,0.5,8.6,1,13,1.5C403.5,8.8,461.4,33.8,510.6,78
		c52.5,47.2,85.3,105.7,97.6,175.4c2,11.5,3.2,23.2,4.8,34.7c0,12,0,23.9,0,35.9c-0.5,4.3-1,8.6-1.5,12.9
		c-7.3,65.6-32.3,123.6-76.5,172.7c-47.2,52.5-105.7,85.3-175.4,97.7c-11.5,2-23.2,3.2-34.8,4.8c-12,0-23.9,0-35.9,0
		c-4.3-0.5-8.6-1-13-1.5c-65.6-7.3-123.6-32.3-172.7-76.5C50.9,486.9,18.1,428.3,5.8,358.7c-2-11.5-3.2-23.2-4.8-34.7
		c0-12,0-23.9,0-35.9c0.5-4.3,1-8.6,1.5-12.9c7.3-65.6,32.3-123.6,76.5-172.7c47.2-52.5,105.7-85.3,175.4-97.7
		C265.8,2.7,277.5,1.6,289.1,0z M453.1,205.9c-1.3-1.8-2.5-3.4-3.6-5c-48.8-73.1-140.6-103-223.1-72.7
		C143.7,158.5,92.5,242.6,103.9,330c5.8,44.4,25,82.3,57.5,113.2c35.9,34.1,79,51.1,128.5,52.4c14.6,0.4,26.2-9.6,27.1-23.7
		c0.9-14.9-9.5-25.8-25.5-27.2c-9.7-0.8-19.7-0.9-29-3.3c-59.9-15.4-96.2-53.5-107.6-114.4c-9.7-51.9,16.5-109.7,61.6-137.5
		c45.1-27.9,91.8-30,139.3-6.7c20.1,9.9,36.5,24.5,49.6,43.6c-14.2,6.1-28,12.2-41.9,18c-7.4,3.1-14.4,6.8-15.2,15.8
		c-0.7,8.8,5.5,13.5,11.9,17.9c37.3,25.9,74.5,51.8,111.8,77.7c2.6,1.8,5.3,3.6,8.2,4.8c9,3.9,18.4-0.1,21.9-9.4
		c1-2.8,1.7-5.7,2.2-8.7c7-45.8,13.9-91.7,20.9-137.5c1.1-7,0.9-13.6-5.1-18.6c-6-5-12.6-3.9-19.2-1.3c-2.4,1-4.7,2.1-7.1,3.1
		C480.3,194.2,466.8,200,453.1,205.9z"/>
	<path class="st3" d="M453.1,205.9c-1.3-1.8-2.5-3.4-3.6-5c-48.8-73.1-140.6-103-223.1-72.7C143.7,158.5,92.5,242.6,103.9,330
		c5.8,44.4,25,82.3,57.5,113.2c35.9,34.1,79,51.1,128.5,52.4c14.6,0.4,26.2-9.6,27.1-23.7c0.9-14.9-9.5-25.8-25.5-27.2
		c-9.7-0.8-19.7-0.9-29-3.3c-59.9-15.4-96.2-53.5-107.6-114.4c-9.7-51.9,16.5-109.7,61.6-137.5c45.1-27.9,91.8-30,139.3-6.7
		c20.1,9.9,36.5,24.5,49.6,43.6c-14.2,6.1-28,12.2-41.9,18c-7.4,3.1-14.4,6.8-15.2,15.8c-0.7,8.8,5.5,13.5,11.9,17.9
		c37.3,25.9,74.5,51.8,111.8,77.7c2.6,1.8,5.3,3.6,8.2,4.8c9,3.9,18.4-0.1,21.9-9.4c1-2.8,1.7-5.7,2.2-8.7
		c7-45.8,13.9-91.7,20.9-137.5c1.1-7,0.9-13.6-5.1-18.6c-6-5-12.6-3.9-19.2-1.3c-2.4,1-4.7,2.1-7.1,3.1
		C480.3,194.2,466.8,200,453.1,205.9z"/>
</g>
</svg>
